<?xml version="1.0" encoding="utf-8"?>
<!-- Generator: Adobe Illustrator 19.0.0, SVG Export Plug-In . SVG Version: 6.00 Build 0)  -->
<svg version="1.1" id="Layer_1" xmlns="http://www.w3.org/2000/svg" xmlns:xlink="http://www.w3.org/1999/xlink" x="0px" y="0px"
	 viewBox="0 0 240 105" style="enable-background:new 0 0 240 105;" xml:space="preserve">
<style type="text/css">
	.st0{fill:#121232;}
</style>
<g id="XMLID_2_">
	<path id="XMLID_9_" class="st0" d="M37.1,0.4c1.5,0,3.3,0.1,5.3,0.3c2,0.2,3.9,0.4,5.9,0.8c1.9,0.3,3.7,0.6,5.3,1
		c1.6,0.3,2.8,0.6,3.6,0.9L54,18.9c-1.4-0.5-3.7-1.1-7-1.8c-3.3-0.7-7.5-1.1-12.6-1.1c-3.3,0-6.6,0.4-9.9,1.1
		c-3.3,0.7-5.4,1.2-6.4,1.4v83.9H0.3V6.8c4.2-1.5,9.5-3,15.7-4.3C22.3,1.1,29.3,0.4,37.1,0.4z"/>
	<path id="XMLID_6_" class="st0" d="M95.1,0c7.2,0,13.2,0.9,18.1,2.8c4.9,1.9,8.9,4.5,11.9,7.9c3,3.4,5.1,7.4,6.4,12.1
		c1.3,4.7,1.9,9.8,1.9,15.4v62.4c-1.5,0.3-3.7,0.6-6.4,1.1c-2.8,0.4-5.9,0.9-9.3,1.2c-3.5,0.4-7.2,0.7-11.2,1.1c-4,0.3-8,0.5-12,0.5
		c-5.6,0-10.8-0.6-15.5-1.7c-4.7-1.2-8.8-3-12.3-5.5c-3.5-2.5-6.1-5.8-8.1-9.9c-1.9-4.1-2.9-9-2.9-14.8c0-5.5,1.1-10.2,3.4-14.2
		c2.2-4,5.3-7.2,9.1-9.6c3.8-2.4,8.3-4.2,13.4-5.4c5.1-1.2,10.5-1.7,16.1-1.7c1.8,0,3.6,0.1,5.6,0.3c1.9,0.2,3.7,0.4,5.5,0.8
		c1.7,0.3,3.2,0.6,4.5,0.9c1.3,0.3,2.2,0.4,2.7,0.6v-5c0-2.9-0.3-5.9-1-8.7c-0.6-2.9-1.8-5.4-3.5-7.7c-1.7-2.2-3.9-4-6.8-5.4
		c-2.9-1.3-6.6-2-11.2-2c-5.9,0-11,0.4-15.4,1.2c-4.4,0.8-7.7,1.7-9.9,2.6L66.1,4.5c2.3-1,6.1-2,11.5-3C83,0.5,88.8,0,95.1,0z
		 M96.6,89.5c4.2,0,8-0.1,11.2-0.3c3.3-0.2,6-0.5,8.2-1.1V58.4c-1.3-0.6-3.4-1.2-6.2-1.6c-2.9-0.4-6.4-0.7-10.5-0.7
		c-2.7,0-5.5,0.2-8.5,0.6c-3,0.4-5.8,1.2-8.3,2.4c-2.5,1.2-4.6,2.9-6.2,5c-1.7,2.1-2.5,4.9-2.5,8.3c0,6.4,2,10.8,6.1,13.3
		C84,88.2,89.6,89.5,96.6,89.5z"/>
	<path id="XMLID_3_" class="st0" d="M239.6,52.4c0,7.9-1.2,15.1-3.5,21.5c-2.3,6.4-5.5,11.9-9.7,16.5c-4.2,4.6-9.1,8.2-14.9,10.7
		c-5.8,2.5-12,3.7-18.8,3.7c-6.8,0-13-1.2-18.8-3.7c-5.8-2.5-10.7-6-14.9-10.7c-4.2-4.6-7.4-10.1-9.7-16.5
		c-2.3-6.4-3.5-13.6-3.5-21.5c0-7.8,1.2-14.9,3.5-21.4c2.3-6.5,5.5-12,9.7-16.6c4.2-4.6,9.1-8.2,14.9-10.7S186,0,192.8,0
		c6.8,0,13,1.2,18.8,3.7s10.7,6,14.9,10.7c4.2,4.6,7.4,10.1,9.7,16.6C238.5,37.5,239.6,44.6,239.6,52.4z M221,52.4
		c0-11.3-2.5-20.2-7.6-26.8c-5.1-6.6-11.9-9.9-20.6-9.9c-8.7,0-15.6,3.3-20.6,9.9c-5.1,6.6-7.6,15.5-7.6,26.8
		c0,11.3,2.5,20.2,7.6,26.8c5.1,6.6,11.9,9.9,20.6,9.9c8.7,0,15.6-3.3,20.6-9.9C218.5,72.6,221,63.7,221,52.4z"/>
</g>
</svg>
