<?xml version="1.0" encoding="utf-8"?>
<!-- Generator: Adobe Illustrator 19.0.0, SVG Export Plug-In . SVG Version: 6.00 Build 0)  -->
<svg version="1.1" id="Capa_1" xmlns="http://www.w3.org/2000/svg" xmlns:xlink="http://www.w3.org/1999/xlink" x="0px" y="0px"
	 viewBox="136 -204 512 512" style="enable-background:new 136 -204 512 512;" xml:space="preserve">
<style type="text/css">
	.st0{fill:#5C6B7E;}
    .st0:hover{fill:#001837;}
</style>
<path class="st0" d="M573-129c-99.8-99.8-262.3-99.8-362.1,0c-35,35-59,79-69.3,127.2c-10,47-6.7,95.6,9.5,140.7
	c2,5.4,7.9,8.2,13.3,6.3c5.4-2,8.2-7.9,6.3-13.3c-14.9-41.4-17.9-86.1-8.7-129.3c9.5-44.3,31.5-84.7,63.6-116.9
	c91.7-91.7,240.9-91.7,332.6,0C602-70.6,626.4-12.6,627.1,49.2c0.7,61.6-22.2,120.1-64.7,164.8c-0.5,0.5-1,1.1-1.5,1.6
	c-0.9,0.9-1.8,1.9-2.7,2.8c-91.7,91.7-240.9,91.7-332.6,0c-0.5-0.5-1-1-1.4-1.5c0-1,0-1.9,0-2.8c0-2.1,0-4.2,0.1-6.3
	c0-0.7,0.1-1.4,0.1-2.1c0.1-1.4,0.1-2.8,0.2-4.1c0.1-0.8,0.1-1.6,0.2-2.5c0.1-1.2,0.2-2.5,0.3-3.7c0.1-0.9,0.2-1.7,0.3-2.6
	c0.1-1.2,0.3-2.3,0.5-3.5c0.1-0.9,0.3-1.8,0.4-2.7c0.2-1.1,0.4-2.3,0.6-3.4c0.2-0.9,0.4-1.8,0.5-2.7c0.2-1.1,0.4-2.2,0.7-3.3
	c0.2-0.9,0.4-1.8,0.6-2.7c0.3-1.1,0.5-2.2,0.8-3.2c0.2-0.9,0.5-1.8,0.7-2.7c0.3-1.1,0.6-2.1,0.9-3.2c0.3-0.9,0.6-1.8,0.8-2.6
	c0.3-1,0.7-2.1,1-3.1c0.3-0.9,0.6-1.7,0.9-2.6c0.4-1,0.7-2.1,1.1-3.1c0.3-0.9,0.7-1.7,1-2.6c0.4-1,0.8-2,1.2-3
	c0.4-0.9,0.7-1.7,1.1-2.5c0.4-1,0.9-2,1.3-3c0.4-0.8,0.8-1.7,1.2-2.5c0.5-1,1-1.9,1.5-2.9c0.4-0.8,0.8-1.6,1.3-2.4
	c0.5-1,1-1.9,1.6-2.9c0.4-0.8,0.9-1.6,1.4-2.4c0.5-0.9,1.1-1.9,1.7-2.8c0.5-0.8,1-1.6,1.4-2.3c0.6-0.9,1.2-1.8,1.8-2.7
	c0.5-0.8,1-1.5,1.5-2.3c0.6-0.9,1.2-1.8,1.9-2.7c0.5-0.7,1.1-1.5,1.6-2.2c0.6-0.9,1.3-1.8,2-2.6c0.6-0.7,1.1-1.4,1.7-2.1
	c0.7-0.9,1.4-1.7,2.1-2.6c0.6-0.7,1.1-1.4,1.7-2.1c0.7-0.8,1.5-1.7,2.2-2.5c0.6-0.7,1.2-1.3,1.8-2c0.8-0.8,1.5-1.6,2.3-2.4
	c0.6-0.6,1.2-1.3,1.9-1.9c0.8-0.8,1.6-1.6,2.4-2.4c0.6-0.6,1.3-1.2,1.9-1.8c0.8-0.8,1.7-1.6,2.5-2.3c0.6-0.6,1.3-1.2,1.9-1.8
	c0.9-0.8,1.8-1.5,2.7-2.3c0.7-0.6,1.3-1.1,2-1.7c0.9-0.8,1.9-1.5,2.8-2.2c0.7-0.5,1.3-1,2-1.5c1-0.8,2-1.5,3-2.2
	c0.6-0.5,1.3-0.9,1.9-1.4c1.1-0.8,2.3-1.5,3.4-2.3c0.6-0.4,1.1-0.8,1.7-1.1c1.5-1,3-1.9,4.5-2.8c0.2-0.1,0.5-0.3,0.7-0.4
	c1.8-1.1,3.5-2.1,5.3-3.1c0.6-0.3,1.3-0.7,1.9-1c1.2-0.6,2.4-1.3,3.6-1.9c0.8-0.4,1.6-0.8,2.4-1.1c1-0.5,2-1,3-1.4
	c18.9,18,44.1,28.3,70.2,28.3c26.2,0,51.3-10.2,70.2-28.3c36.9,17.1,67,47.7,83.4,84.9c2.3,5.3,8.5,7.7,13.7,5.3
	c5.3-2.3,7.7-8.5,5.3-13.7c-17.9-40.7-49.1-73.3-88.6-92.9c11.5-16.8,17.7-36.7,17.7-57.1c0-56.1-45.7-101.8-101.8-101.8
	c-5.8,0-10.4,4.7-10.4,10.4s4.7,10.4,10.4,10.4c44.6,0,80.9,36.3,80.9,80.9c0,20-7.4,39.2-20.9,54.1c0,0,0,0,0,0
	C436.7,59.2,414.8,69,392,69c-22.8,0-44.7-9.8-60.1-26.8c0,0,0,0,0,0C318.5,27.2,311.1,8,311.1-11.9c0-21.8,8.5-42.2,24-57.5
	c4.1-4,4.1-10.6,0.1-14.7c-4-4.1-10.6-4.1-14.7-0.1c-19.5,19.3-30.2,45-30.2,72.4c0,20.5,6.2,40.3,17.6,57.1
	c-0.1,0.1-0.2,0.1-0.3,0.2c-0.8,0.4-1.6,0.8-2.4,1.3c-1.2,0.6-2.5,1.3-3.7,1.9c-0.9,0.5-1.7,1-2.6,1.4c-1.1,0.6-2.3,1.3-3.4,2
	c-0.9,0.5-1.7,1.1-2.6,1.6c-1.1,0.7-2.2,1.3-3.2,2c-0.9,0.6-1.7,1.1-2.6,1.7c-1,0.7-2.1,1.4-3.1,2.1c-0.9,0.6-1.7,1.2-2.5,1.8
	c-1,0.7-2,1.4-3,2.2c-0.8,0.6-1.7,1.3-2.5,1.9c-1,0.7-1.9,1.5-2.8,2.2c-0.8,0.7-1.6,1.3-2.4,2c-0.9,0.8-1.8,1.6-2.7,2.3
	c-0.8,0.7-1.6,1.4-2.3,2.1c-0.9,0.8-1.8,1.6-2.7,2.4c-0.8,0.7-1.5,1.4-2.3,2.1c-0.9,0.8-1.7,1.7-2.6,2.5c-0.7,0.7-1.5,1.5-2.2,2.2
	c-0.8,0.9-1.7,1.8-2.5,2.7c-0.7,0.7-1.4,1.5-2.1,2.2c-0.8,0.9-1.6,1.9-2.4,2.8c-0.6,0.8-1.3,1.5-1.9,2.3c-0.8,1-1.6,2-2.4,3
	c-0.6,0.7-1.2,1.5-1.8,2.2c-0.8,1.1-1.6,2.2-2.5,3.3c-0.5,0.7-1,1.4-1.5,2.1c-1,1.4-2,2.9-3,4.3c-0.3,0.4-0.5,0.8-0.8,1.1
	c-1.2,1.8-2.4,3.7-3.6,5.6c-0.4,0.6-0.8,1.3-1.2,2c-0.8,1.2-1.5,2.5-2.2,3.8c-0.5,0.8-0.9,1.6-1.3,2.4c-0.6,1.1-1.3,2.3-1.9,3.4
	c-0.5,0.9-0.9,1.7-1.3,2.6c-0.6,1.1-1.1,2.2-1.7,3.4c-0.4,0.9-0.8,1.8-1.3,2.7c-0.5,1.1-1,2.2-1.5,3.4c-0.4,0.9-0.8,1.9-1.2,2.8
	c-0.5,1.1-0.9,2.2-1.4,3.4c-0.4,1-0.7,1.9-1.1,2.9c-0.4,1.1-0.8,2.3-1.3,3.4c-0.3,1-0.7,1.9-1,2.9c-0.4,1.1-0.8,2.3-1.1,3.5
	c-0.3,1-0.6,2-0.9,3c-0.3,1.2-0.7,2.3-1,3.5c-0.3,1-0.5,2-0.8,3c-0.3,1.2-0.6,2.4-0.9,3.6c-0.2,1-0.5,2-0.7,3
	c-0.3,1.2-0.5,2.4-0.8,3.7c-0.2,1-0.4,2-0.6,3c-0.2,1.2-0.4,2.5-0.6,3.8c-0.2,1-0.3,2-0.5,3c-0.2,1.3-0.3,2.6-0.5,3.9
	c-0.1,1-0.3,1.9-0.4,2.9c-0.1,1.4-0.3,2.7-0.4,4.1c-0.1,0.9-0.2,1.8-0.2,2.7c-0.1,1.5-0.2,3.1-0.3,4.6c0,0.8-0.1,1.5-0.1,2.3
	c-0.1,2.3-0.1,4.6-0.1,7c0,2.5,0.1,4.9,0.2,7.5c0,0.6,0.1,1.2,0.2,1.8c0,0,0,0.1,0,0.1c0.1,0.6,0.3,1.1,0.5,1.6c0,0.1,0,0.1,0.1,0.2
	c0.2,0.5,0.5,1,0.8,1.5c0,0.1,0.1,0.1,0.1,0.2c0.3,0.5,0.7,0.9,1,1.3c0,0,0,0.1,0.1,0.1l1.4,1.5c1,1.1,2.1,2.2,3.2,3.3
	c49.9,49.9,115.5,74.9,181,74.9s131.1-25,181-74.9c1.1-1.1,2.1-2.2,3.2-3.3l1.4-1.5C623.8,179.7,648.8,116,648,48.9
	C647.2-18.3,620.6-81.5,573-129z"/>
</svg>
